<mxfile host="Electron" agent="Mozilla/5.0 (Windows NT 10.0; Win64; x64) AppleWebKit/537.36 (KHTML, like Gecko) draw.io/24.7.17 Chrome/128.0.6613.36 Electron/32.0.1 Safari/537.36" version="24.7.17">
  <diagram name="Page-1" id="cvzVg_CzL_zBHI926kZU">
    <mxGraphModel dx="1037" dy="751" grid="1" gridSize="10" guides="1" tooltips="1" connect="1" arrows="1" fold="1" page="1" pageScale="1" pageWidth="980" pageHeight="690" math="0" shadow="0">
      <root>
        <mxCell id="0" />
        <mxCell id="1" parent="0" />
        <mxCell id="rtProBHv81GMMC2mlCSq-1" value="Sông quê" style="rounded=0;whiteSpace=wrap;html=1;fillColor=#1ba1e2;strokeColor=none;fontColor=#ffffff;align=left;fontSize=16;" vertex="1" parent="1">
          <mxGeometry x="200" y="240" width="660" height="40" as="geometry" />
        </mxCell>
        <mxCell id="rtProBHv81GMMC2mlCSq-2" value="" style="rounded=0;whiteSpace=wrap;html=1;fillColor=#1ba1e2;strokeColor=none;fontColor=#ffffff;" vertex="1" parent="1">
          <mxGeometry x="280" y="160" width="20" height="80" as="geometry" />
        </mxCell>
        <mxCell id="rtProBHv81GMMC2mlCSq-3" value="" style="rounded=0;whiteSpace=wrap;html=1;fillColor=#1ba1e2;strokeColor=none;fontColor=#ffffff;" vertex="1" parent="1">
          <mxGeometry x="340" y="160" width="20" height="80" as="geometry" />
        </mxCell>
        <mxCell id="rtProBHv81GMMC2mlCSq-4" value="" style="rounded=0;whiteSpace=wrap;html=1;fillColor=#1ba1e2;strokeColor=none;fontColor=#ffffff;" vertex="1" parent="1">
          <mxGeometry x="400" y="160" width="20" height="80" as="geometry" />
        </mxCell>
        <mxCell id="rtProBHv81GMMC2mlCSq-5" value="" style="rounded=0;whiteSpace=wrap;html=1;fillColor=#1ba1e2;strokeColor=none;fontColor=#ffffff;" vertex="1" parent="1">
          <mxGeometry x="400" y="280" width="20" height="80" as="geometry" />
        </mxCell>
        <mxCell id="rtProBHv81GMMC2mlCSq-7" value="" style="rounded=0;whiteSpace=wrap;html=1;fillColor=#1ba1e2;strokeColor=none;fontColor=#ffffff;" vertex="1" parent="1">
          <mxGeometry x="700" y="280" width="20" height="80" as="geometry" />
        </mxCell>
        <mxCell id="rtProBHv81GMMC2mlCSq-8" value="" style="rounded=0;whiteSpace=wrap;html=1;fillColor=#1ba1e2;strokeColor=none;fontColor=#ffffff;" vertex="1" parent="1">
          <mxGeometry x="640" y="280" width="20" height="80" as="geometry" />
        </mxCell>
        <mxCell id="rtProBHv81GMMC2mlCSq-9" value="" style="rounded=0;whiteSpace=wrap;html=1;fillColor=#1ba1e2;strokeColor=none;fontColor=#ffffff;" vertex="1" parent="1">
          <mxGeometry x="520" y="280" width="20" height="80" as="geometry" />
        </mxCell>
        <mxCell id="rtProBHv81GMMC2mlCSq-10" value="" style="rounded=0;whiteSpace=wrap;html=1;fillColor=#1ba1e2;strokeColor=none;fontColor=#ffffff;" vertex="1" parent="1">
          <mxGeometry x="400" y="280" width="20" height="80" as="geometry" />
        </mxCell>
        <mxCell id="rtProBHv81GMMC2mlCSq-12" value="" style="rounded=0;whiteSpace=wrap;html=1;fillColor=#1ba1e2;strokeColor=none;fontColor=#ffffff;" vertex="1" parent="1">
          <mxGeometry x="400" y="280" width="20" height="80" as="geometry" />
        </mxCell>
        <mxCell id="rtProBHv81GMMC2mlCSq-14" value="" style="rounded=0;whiteSpace=wrap;html=1;fillColor=#1ba1e2;strokeColor=none;fontColor=#ffffff;" vertex="1" parent="1">
          <mxGeometry x="640" y="160" width="20" height="80" as="geometry" />
        </mxCell>
        <mxCell id="rtProBHv81GMMC2mlCSq-15" value="" style="rounded=0;whiteSpace=wrap;html=1;fillColor=#1ba1e2;strokeColor=none;fontColor=#ffffff;" vertex="1" parent="1">
          <mxGeometry x="580" y="280" width="20" height="80" as="geometry" />
        </mxCell>
        <mxCell id="rtProBHv81GMMC2mlCSq-16" value="" style="rounded=0;whiteSpace=wrap;html=1;fillColor=#1ba1e2;strokeColor=none;fontColor=#ffffff;" vertex="1" parent="1">
          <mxGeometry x="460" y="160" width="20" height="80" as="geometry" />
        </mxCell>
        <mxCell id="rtProBHv81GMMC2mlCSq-17" value="" style="rounded=0;whiteSpace=wrap;html=1;fillColor=#1ba1e2;strokeColor=none;fontColor=#ffffff;" vertex="1" parent="1">
          <mxGeometry x="400" y="280" width="20" height="80" as="geometry" />
        </mxCell>
        <mxCell id="rtProBHv81GMMC2mlCSq-18" value="" style="rounded=0;whiteSpace=wrap;html=1;fillColor=#1ba1e2;strokeColor=none;fontColor=#ffffff;" vertex="1" parent="1">
          <mxGeometry x="760" y="160" width="20" height="80" as="geometry" />
        </mxCell>
        <mxCell id="rtProBHv81GMMC2mlCSq-19" value="" style="rounded=0;whiteSpace=wrap;html=1;fillColor=#1ba1e2;strokeColor=none;fontColor=#ffffff;" vertex="1" parent="1">
          <mxGeometry x="400" y="280" width="20" height="80" as="geometry" />
        </mxCell>
        <mxCell id="rtProBHv81GMMC2mlCSq-20" value="" style="endArrow=classic;html=1;rounded=0;strokeWidth=2;" edge="1" parent="1">
          <mxGeometry width="50" height="50" relative="1" as="geometry">
            <mxPoint x="240" y="200" as="sourcePoint" />
            <mxPoint x="240" y="320" as="targetPoint" />
          </mxGeometry>
        </mxCell>
        <mxCell id="rtProBHv81GMMC2mlCSq-22" value="" style="endArrow=classic;html=1;rounded=0;strokeWidth=2;" edge="1" parent="1">
          <mxGeometry width="50" height="50" relative="1" as="geometry">
            <mxPoint x="500" y="200" as="sourcePoint" />
            <mxPoint x="740" y="200" as="targetPoint" />
          </mxGeometry>
        </mxCell>
        <mxCell id="rtProBHv81GMMC2mlCSq-23" value="" style="endArrow=classic;html=1;rounded=0;strokeWidth=2;" edge="1" parent="1">
          <mxGeometry width="50" height="50" relative="1" as="geometry">
            <mxPoint x="500" y="320" as="sourcePoint" />
            <mxPoint x="500" y="200" as="targetPoint" />
          </mxGeometry>
        </mxCell>
        <mxCell id="rtProBHv81GMMC2mlCSq-24" value="" style="endArrow=classic;html=1;rounded=0;strokeWidth=2;" edge="1" parent="1">
          <mxGeometry width="50" height="50" relative="1" as="geometry">
            <mxPoint x="240" y="320" as="sourcePoint" />
            <mxPoint x="500" y="320" as="targetPoint" />
          </mxGeometry>
        </mxCell>
        <mxCell id="rtProBHv81GMMC2mlCSq-25" value="" style="endArrow=classic;html=1;rounded=0;strokeWidth=2;" edge="1" parent="1">
          <mxGeometry width="50" height="50" relative="1" as="geometry">
            <mxPoint x="740" y="200" as="sourcePoint" />
            <mxPoint x="740" y="320" as="targetPoint" />
          </mxGeometry>
        </mxCell>
        <mxCell id="rtProBHv81GMMC2mlCSq-26" value="Nhà bé Cốm" style="html=1;verticalLabelPosition=bottom;align=center;labelBackgroundColor=#ffffff;verticalAlign=top;strokeWidth=2;strokeColor=#b46504;shadow=0;dashed=0;shape=mxgraph.ios7.icons.home;fillColor=#fad7ac;fontColor=#994C00;fontSize=16;" vertex="1" parent="1">
          <mxGeometry x="210" y="150" width="24" height="25.5" as="geometry" />
        </mxCell>
        <mxCell id="rtProBHv81GMMC2mlCSq-27" value="Nhà ngoại" style="html=1;verticalLabelPosition=bottom;align=center;labelBackgroundColor=#ffffff;verticalAlign=top;strokeWidth=2;strokeColor=#b46504;shadow=0;dashed=0;shape=mxgraph.ios7.icons.home;fillColor=#fad7ac;fontColor=#994C00;fontSize=16;" vertex="1" parent="1">
          <mxGeometry x="810" y="290" width="24" height="25.5" as="geometry" />
        </mxCell>
      </root>
    </mxGraphModel>
  </diagram>
</mxfile>
